<?xml version="1.0" standalone="no"?>
<!DOCTYPE svg PUBLIC "-//W3C//DTD SVG 20010904//EN"
 "http://www.w3.org/TR/2001/REC-SVG-20010904/DTD/svg10.dtd">
<svg version="1.0" xmlns="http://www.w3.org/2000/svg"
 width="398.000000pt" height="398.000000pt" viewBox="0 0 398.000000 398.000000"
 preserveAspectRatio="xMidYMid meet">
<metadata>
Created by potrace 1.14, written by Peter Selinger 2001-2017
</metadata>
<g transform="translate(0.000000,398.000000) scale(0.100000,-0.100000)"
fill="#000000" stroke="none">
<path d="M580 2963 c-204 -16 -353 -188 -344 -398 5 -108 26 -156 109 -249 49
-54 194 -213 233 -254 23 -25 42 -52 42 -61 0 -24 -23 -53 -125 -160 -179
-186 -203 -214 -224 -257 -12 -23 -24 -60 -26 -81 -2 -21 -5 -40 -5 -43 -4
-10 -2 -66 3 -103 9 -61 61 -160 106 -203 46 -43 148 -101 189 -109 84 -14
133 -6 222 37 88 43 189 146 259 266 29 51 54 92 56 92 1 0 31 -48 66 -107 73
-125 158 -216 239 -255 57 -29 120 -46 155 -43 108 10 176 42 251 119 45 47
100 142 107 186 1 8 5 20 9 25 3 6 5 42 4 80 -3 123 -37 174 -283 422 -68 68
-123 128 -123 133 0 5 26 35 57 68 279 285 328 346 347 434 18 79 9 192 -19
234 -8 13 -15 28 -15 34 0 11 -32 52 -75 94 -16 16 -59 43 -95 59 -135 62
-308 29 -440 -85 -66 -56 -187 -240 -181 -273 3 -18 -38 39 -51 70 -20 49 -75
126 -125 178 -42 43 -148 118 -177 124 -6 1 -33 8 -61 15 -27 7 -66 12 -85 11z"/>
<path d="M2074 2922 c-8 -5 -11 -256 -12 -887 -1 -484 1 -890 4 -903 l5 -24
472 6 c481 5 508 7 587 33 158 52 285 149 406 309 73 97 154 279 169 379 20
130 20 200 1 326 -9 61 -66 220 -103 289 -69 129 -164 237 -285 323 -73 52
-214 126 -256 133 -14 3 -30 8 -36 12 -15 9 -938 13 -952 4z m927 -72 c134
-25 260 -95 389 -216 65 -62 180 -217 180 -244 0 -6 7 -21 15 -34 15 -23 48
-127 60 -189 23 -119 15 -290 -17 -397 -21 -69 -96 -216 -142 -276 -55 -74
-160 -184 -174 -184 -6 0 -12 -4 -14 -9 -6 -17 -117 -81 -177 -101 -64 -21
-165 -31 -365 -33 l-110 -2 -7 26 c-3 15 -6 114 -5 220 l1 194 180 1 c174 0
182 1 236 27 162 78 240 269 192 467 -35 143 -108 240 -221 293 -65 30 -72 31
-221 34 -106 2 -157 7 -162 15 -12 18 -9 412 3 419 16 10 290 1 359 -11z m-65
-482 c159 -45 264 -199 258 -378 -6 -175 -86 -298 -214 -325 -55 -12 -320 -9
-333 4 -10 10 -20 644 -10 682 3 10 17 19 32 21 40 6 243 2 267 -4z"/>
</g>
</svg>
